# xmcd
#
# Track frame offsets:
#	150
#	22140
#	46830
#	58915
#	78062
#	94073
#	116758
#	131999
#	150525
#	166105
#
# Disc length: 2474 seconds
#
# Revision: 1
# Processed by: cddbd v1.5.2PL0 Copyright (c) Steve Scherf et al.
# Submitted via: audiograbber 1.83.01
#
DISCID=7c09a80a
DTITLE=Viva Latino - Latin House
DYEAR=2000
DGENRE=Salsa
TTITLE0=La Bambaleo
TTITLE1=Salsa De New York (club mix)
TTITLE2=Viva El Tango
TTITLE3=Everybody Salsa
TTITLE4=Pepito
TTITLE5=Spanish Hustle II
TTITLE6=Ritmo De La Noche
TTITLE7=Carnaval
TTITLE8=Bailamos
TTITLE9=Se Agabo Baby
EXTD=
EXTT0=
EXTT1=
EXTT2=
EXTT3=
EXTT4=
EXTT5=
EXTT6=
EXTT7=
EXTT8=
EXTT9=
PLAYORDER=
